<svg width="3562" height="802" viewBox="0 0 3562 802" fill="none" xmlns="http://www.w3.org/2000/svg">
<g clip-path="url(#clip0_41_68)">
<mask id="path-1-outside-1_41_68" maskUnits="userSpaceOnUse" x="1275" y="332" width="2205" height="343" fill="black">
<rect fill="white" x="1275" y="332" width="2205" height="343"/>
<path d="M1404.88 674C1331.24 674 1276 636.746 1276 597.35C1276 585.788 1280.71 579.793 1290.56 579.793C1316.68 579.793 1325.24 663.295 1407.88 663.295C1448.98 663.295 1475.1 638.03 1475.1 604.201C1475.1 521.985 1293.56 529.693 1293.56 435.914C1293.56 393.093 1331.24 365.688 1389.47 365.688C1448.98 365.688 1500.79 395.662 1500.79 429.919C1500.79 441.481 1496.08 447.048 1486.24 447.048C1455.84 447.048 1463.97 376.393 1391.61 376.393C1357.35 376.393 1335.52 391.809 1335.52 417.073C1335.52 489.013 1522.2 491.154 1522.2 589.642C1522.2 639.315 1476.39 674 1404.88 674Z"/>
<path d="M1588.99 614.05C1588.99 641.456 1603.55 657.3 1627.95 657.3C1655.36 657.3 1672.48 636.317 1675.48 599.919V582.791C1675.48 566.947 1675.48 552.388 1675.91 539.97C1650.22 562.237 1588.99 558.383 1588.99 614.05ZM1718.3 510.423V663.295C1728.15 663.295 1736.28 657.728 1747.84 644.025L1750.41 647.451C1739.28 665.008 1724.29 674 1705.03 674C1685.76 674 1677.62 665.864 1675.91 643.597C1665.21 663.295 1645.08 673.144 1615.96 673.144C1571.43 673.144 1544.03 650.877 1544.03 614.907C1544.03 538.685 1668.63 563.093 1675.48 518.559C1675.05 479.164 1670.77 462.035 1649.79 462.035C1605.69 462.035 1607.4 510.423 1585.56 510.423C1576.57 510.423 1569.72 502.715 1569.72 492.01C1569.72 469.315 1604.83 451.33 1649.36 451.33C1691.75 451.33 1718.3 468.03 1718.3 510.423Z"/>
<path d="M1745.71 632.892V485.587C1745.71 474.882 1744.86 477.451 1716.17 472.741V468.458L1788.53 451.33V495.008C1800.52 465.889 1822.36 451.33 1854.47 451.33C1892.58 451.33 1918.7 471.884 1928.55 507.854C1938.82 470.171 1962.37 451.33 1998.77 451.33C2048.44 451.33 2077.12 485.159 2077.12 543.395V632.892C2077.12 644.882 2077.12 660.725 2106.67 665.436V669.718H2004.76V665.436C2033.45 660.725 2034.31 644.882 2034.31 633.748V545.965C2034.31 495.864 2017.61 466.317 1986.78 466.317C1954.24 466.317 1932.83 502.715 1932.83 560.524V632.892C1932.83 644.882 1932.83 660.725 1962.37 665.436V669.718H1860.46V665.436C1889.15 660.725 1890.01 644.882 1890.01 633.748V545.965C1890.01 495.864 1873.31 466.317 1842.48 466.317C1809.94 466.317 1788.53 502.715 1788.53 560.524V632.892C1788.53 644.882 1788.53 660.725 1818.08 665.436V669.718H1716.17V665.436C1744.86 660.725 1745.71 644.453 1745.71 632.892Z"/>
<path d="M2212 462.035C2177.75 462.035 2152.91 498.005 2151.63 549.819H2274.09C2270.66 497.577 2246.68 462.035 2212 462.035ZM2311.77 611.909H2316.05C2301.92 649.592 2269.38 669.718 2221.42 669.718C2151.2 669.718 2106.67 626.897 2106.67 560.096C2106.67 495.008 2149.49 451.33 2213.28 451.33C2276.66 451.33 2319.47 495.436 2319.47 560.524H2151.63C2153.77 618.761 2186.31 654.73 2239.4 654.73C2273.66 654.73 2298.49 639.743 2311.77 611.909Z"/>
<path d="M2446.16 462.035C2411.91 462.035 2387.07 498.005 2385.79 549.819H2508.25C2504.82 497.577 2480.84 462.035 2446.16 462.035ZM2545.93 611.909H2550.21C2536.08 649.592 2503.54 669.718 2455.58 669.718C2385.36 669.718 2340.83 626.897 2340.83 560.096C2340.83 495.008 2383.65 451.33 2447.45 451.33C2510.82 451.33 2553.63 495.436 2553.63 560.524H2385.79C2387.93 618.761 2420.47 654.73 2473.56 654.73C2507.82 654.73 2532.65 639.743 2545.93 611.909Z"/>
<path d="M2643.93 334V629.894C2643.93 641.884 2646.07 650.02 2650.35 654.302C2654.63 658.584 2661.91 660.725 2672.19 660.725V669.718C2667.62 669.432 2660.77 669.147 2651.63 668.861C2642.78 668.29 2633.79 668.005 2624.66 668.005C2614.95 668.005 2605.1 668.29 2595.11 668.861C2585.12 669.147 2577.7 669.432 2572.85 669.718V660.725C2584.55 660.725 2592.83 658.584 2597.68 654.302C2602.82 650.02 2605.39 641.884 2605.39 629.894V385.385C2605.39 372.539 2603.11 363.118 2598.54 357.123C2593.97 350.843 2585.41 347.703 2572.85 347.703V338.71C2581.98 339.567 2590.83 339.995 2599.4 339.995C2607.67 339.995 2615.52 339.567 2622.95 338.71C2630.65 337.568 2637.65 335.998 2643.93 334ZM2780.09 449.189V457.753C2772.95 458.324 2766.24 460.322 2759.96 463.748C2753.68 466.888 2747.55 471.599 2741.55 477.879L2681.18 541.254L2687.17 529.264L2766.81 638.458C2771.67 645.024 2776.23 650.163 2780.52 653.874C2785.08 657.585 2790.51 659.869 2796.79 660.725V669.718C2793.65 669.432 2788.65 669.147 2781.8 668.861C2775.23 668.29 2768.67 668.005 2762.1 668.005C2753.25 668.005 2744.26 668.29 2735.13 668.861C2725.99 669.147 2719.14 669.432 2714.58 669.718V660.725C2720.29 660.725 2724.28 659.298 2726.56 656.443C2728.85 653.589 2728.42 650.163 2725.28 646.166L2676.04 574.227C2670.62 566.519 2665.62 561.523 2661.05 559.239C2656.77 556.955 2650.49 555.671 2642.21 555.385V546.821C2651.35 545.679 2658.77 543.824 2664.48 541.254C2670.19 538.4 2675.61 534.26 2680.75 528.836L2712.44 495.864C2721.57 486.443 2726.14 479.021 2726.14 473.597C2726.14 467.887 2723.14 463.891 2717.15 461.607C2711.44 459.038 2703.87 457.753 2694.45 457.753V449.189C2701.87 449.474 2710.15 449.903 2719.29 450.474C2728.71 450.759 2736.56 450.902 2742.84 450.902C2747.69 450.902 2752.4 450.902 2756.97 450.902C2761.53 450.616 2765.81 450.331 2769.81 450.045C2773.81 449.76 2777.23 449.474 2780.09 449.189Z"/>
<path d="M2902.03 663.295C2929.01 663.723 2944 650.877 2944 627.325C2944 560.952 2818.54 575.94 2818.54 506.997C2818.97 473.169 2848.08 451.33 2892.19 451.33C2938.43 451.33 2980.39 475.738 2980.39 503.144C2980.39 513.421 2974.4 519.844 2964.12 519.844C2934.15 519.844 2951.7 462.463 2898.61 462.463C2875.92 462.463 2863.07 472.312 2863.5 489.441C2865.21 542.111 2988.96 535.259 2988.96 605.486C2988.96 644.025 2951.28 674 2903.75 674C2857.5 674 2810.4 647.879 2810.4 621.758C2810.4 611.909 2816.4 605.486 2825.39 605.486C2850.65 605.486 2847.23 663.295 2902.03 663.295Z"/>
<path d="M3035.69 632.892V369.97C3035.69 359.264 3034.83 361.834 3006.15 357.123V352.841L3078.51 335.713V495.864C3090.93 466.317 3113.62 451.33 3146.59 451.33C3197.54 451.33 3227.09 485.159 3227.09 543.395V632.892C3227.09 644.882 3227.09 660.725 3256.63 665.436V669.718H3154.72V665.436C3183.41 660.725 3184.27 644.882 3184.27 633.748V545.965C3184.27 495.864 3166.29 466.317 3135.03 466.317C3100.77 466.317 3078.51 502.715 3078.51 560.524V632.892C3078.51 644.882 3078.51 660.725 3108.05 665.436V669.718H3006.15V665.436C3034.83 660.725 3035.69 644.453 3035.69 632.892Z"/>
<path d="M3316.58 614.05C3316.58 641.456 3331.13 657.3 3355.54 657.3C3382.94 657.3 3400.07 636.317 3403.07 599.919V582.791C3403.07 566.947 3403.07 552.388 3403.5 539.97C3377.81 562.237 3316.58 558.383 3316.58 614.05ZM3445.89 510.423V663.295C3455.73 663.295 3463.87 657.728 3475.43 644.025L3478 647.451C3466.87 665.008 3451.88 674 3432.61 674C3413.34 674 3405.21 665.864 3403.5 643.597C3392.79 663.295 3372.67 673.144 3343.55 673.144C3299.02 673.144 3271.62 650.877 3271.62 614.907C3271.62 538.685 3396.22 563.093 3403.07 518.559C3402.64 479.164 3398.36 462.035 3377.38 462.035C3333.28 462.035 3334.99 510.423 3313.15 510.423C3304.16 510.423 3297.31 502.715 3297.31 492.01C3297.31 469.315 3332.42 451.33 3376.95 451.33C3419.34 451.33 3445.89 468.03 3445.89 510.423Z"/>
</mask>
<path d="M1404.88 674C1331.24 674 1276 636.746 1276 597.35C1276 585.788 1280.71 579.793 1290.56 579.793C1316.68 579.793 1325.24 663.295 1407.88 663.295C1448.98 663.295 1475.1 638.03 1475.1 604.201C1475.1 521.985 1293.56 529.693 1293.56 435.914C1293.56 393.093 1331.24 365.688 1389.47 365.688C1448.98 365.688 1500.79 395.662 1500.79 429.919C1500.79 441.481 1496.08 447.048 1486.24 447.048C1455.84 447.048 1463.97 376.393 1391.61 376.393C1357.35 376.393 1335.52 391.809 1335.52 417.073C1335.52 489.013 1522.2 491.154 1522.2 589.642C1522.2 639.315 1476.39 674 1404.88 674Z" fill="black" fill-opacity="0.1"/>
<path d="M1588.99 614.05C1588.99 641.456 1603.55 657.3 1627.95 657.3C1655.36 657.3 1672.48 636.317 1675.48 599.919V582.791C1675.48 566.947 1675.48 552.388 1675.91 539.97C1650.22 562.237 1588.99 558.383 1588.99 614.05ZM1718.3 510.423V663.295C1728.15 663.295 1736.28 657.728 1747.84 644.025L1750.41 647.451C1739.28 665.008 1724.29 674 1705.03 674C1685.76 674 1677.62 665.864 1675.91 643.597C1665.21 663.295 1645.08 673.144 1615.96 673.144C1571.43 673.144 1544.03 650.877 1544.03 614.907C1544.03 538.685 1668.63 563.093 1675.48 518.559C1675.05 479.164 1670.77 462.035 1649.79 462.035C1605.69 462.035 1607.4 510.423 1585.56 510.423C1576.57 510.423 1569.72 502.715 1569.72 492.01C1569.72 469.315 1604.83 451.33 1649.36 451.33C1691.75 451.33 1718.3 468.03 1718.3 510.423Z" fill="black" fill-opacity="0.1"/>
<path d="M1745.71 632.892V485.587C1745.71 474.882 1744.86 477.451 1716.17 472.741V468.458L1788.53 451.33V495.008C1800.52 465.889 1822.36 451.33 1854.47 451.33C1892.58 451.33 1918.7 471.884 1928.55 507.854C1938.82 470.171 1962.37 451.33 1998.77 451.33C2048.44 451.33 2077.12 485.159 2077.12 543.395V632.892C2077.12 644.882 2077.12 660.725 2106.67 665.436V669.718H2004.76V665.436C2033.45 660.725 2034.31 644.882 2034.31 633.748V545.965C2034.31 495.864 2017.61 466.317 1986.78 466.317C1954.24 466.317 1932.83 502.715 1932.83 560.524V632.892C1932.83 644.882 1932.83 660.725 1962.37 665.436V669.718H1860.46V665.436C1889.15 660.725 1890.01 644.882 1890.01 633.748V545.965C1890.01 495.864 1873.31 466.317 1842.48 466.317C1809.94 466.317 1788.53 502.715 1788.53 560.524V632.892C1788.53 644.882 1788.53 660.725 1818.08 665.436V669.718H1716.17V665.436C1744.86 660.725 1745.71 644.453 1745.71 632.892Z" fill="black" fill-opacity="0.1"/>
<path d="M2212 462.035C2177.75 462.035 2152.91 498.005 2151.63 549.819H2274.09C2270.66 497.577 2246.68 462.035 2212 462.035ZM2311.77 611.909H2316.05C2301.92 649.592 2269.38 669.718 2221.42 669.718C2151.2 669.718 2106.67 626.897 2106.67 560.096C2106.67 495.008 2149.49 451.33 2213.28 451.33C2276.66 451.33 2319.47 495.436 2319.47 560.524H2151.63C2153.77 618.761 2186.31 654.73 2239.4 654.73C2273.66 654.73 2298.49 639.743 2311.77 611.909Z" fill="black" fill-opacity="0.1"/>
<path d="M2446.16 462.035C2411.91 462.035 2387.07 498.005 2385.79 549.819H2508.25C2504.82 497.577 2480.84 462.035 2446.16 462.035ZM2545.93 611.909H2550.21C2536.08 649.592 2503.54 669.718 2455.58 669.718C2385.36 669.718 2340.83 626.897 2340.83 560.096C2340.83 495.008 2383.65 451.33 2447.45 451.33C2510.82 451.33 2553.63 495.436 2553.63 560.524H2385.79C2387.93 618.761 2420.47 654.73 2473.56 654.73C2507.82 654.73 2532.65 639.743 2545.93 611.909Z" fill="black" fill-opacity="0.1"/>
<path d="M2643.93 334V629.894C2643.93 641.884 2646.07 650.02 2650.35 654.302C2654.63 658.584 2661.91 660.725 2672.19 660.725V669.718C2667.62 669.432 2660.77 669.147 2651.63 668.861C2642.78 668.29 2633.79 668.005 2624.66 668.005C2614.95 668.005 2605.1 668.29 2595.11 668.861C2585.12 669.147 2577.7 669.432 2572.85 669.718V660.725C2584.55 660.725 2592.83 658.584 2597.68 654.302C2602.82 650.02 2605.39 641.884 2605.39 629.894V385.385C2605.39 372.539 2603.11 363.118 2598.54 357.123C2593.97 350.843 2585.41 347.703 2572.85 347.703V338.71C2581.98 339.567 2590.83 339.995 2599.4 339.995C2607.67 339.995 2615.52 339.567 2622.95 338.71C2630.65 337.568 2637.65 335.998 2643.93 334ZM2780.09 449.189V457.753C2772.95 458.324 2766.24 460.322 2759.96 463.748C2753.68 466.888 2747.55 471.599 2741.55 477.879L2681.18 541.254L2687.17 529.264L2766.81 638.458C2771.67 645.024 2776.23 650.163 2780.52 653.874C2785.08 657.585 2790.51 659.869 2796.79 660.725V669.718C2793.65 669.432 2788.65 669.147 2781.8 668.861C2775.23 668.29 2768.67 668.005 2762.1 668.005C2753.25 668.005 2744.26 668.29 2735.13 668.861C2725.99 669.147 2719.14 669.432 2714.58 669.718V660.725C2720.29 660.725 2724.28 659.298 2726.56 656.443C2728.85 653.589 2728.42 650.163 2725.28 646.166L2676.04 574.227C2670.62 566.519 2665.62 561.523 2661.05 559.239C2656.77 556.955 2650.49 555.671 2642.21 555.385V546.821C2651.35 545.679 2658.77 543.824 2664.48 541.254C2670.19 538.4 2675.61 534.26 2680.75 528.836L2712.44 495.864C2721.57 486.443 2726.14 479.021 2726.14 473.597C2726.14 467.887 2723.14 463.891 2717.15 461.607C2711.44 459.038 2703.87 457.753 2694.45 457.753V449.189C2701.87 449.474 2710.15 449.903 2719.29 450.474C2728.71 450.759 2736.56 450.902 2742.84 450.902C2747.69 450.902 2752.4 450.902 2756.97 450.902C2761.53 450.616 2765.81 450.331 2769.81 450.045C2773.81 449.76 2777.23 449.474 2780.09 449.189Z" fill="black" fill-opacity="0.1"/>
<path d="M2902.03 663.295C2929.01 663.723 2944 650.877 2944 627.325C2944 560.952 2818.54 575.94 2818.54 506.997C2818.97 473.169 2848.08 451.33 2892.19 451.33C2938.43 451.33 2980.39 475.738 2980.39 503.144C2980.39 513.421 2974.4 519.844 2964.12 519.844C2934.15 519.844 2951.7 462.463 2898.61 462.463C2875.92 462.463 2863.07 472.312 2863.5 489.441C2865.21 542.111 2988.96 535.259 2988.96 605.486C2988.96 644.025 2951.28 674 2903.75 674C2857.5 674 2810.4 647.879 2810.4 621.758C2810.4 611.909 2816.4 605.486 2825.39 605.486C2850.65 605.486 2847.23 663.295 2902.03 663.295Z" fill="black" fill-opacity="0.1"/>
<path d="M3035.69 632.892V369.97C3035.69 359.264 3034.83 361.834 3006.15 357.123V352.841L3078.51 335.713V495.864C3090.93 466.317 3113.62 451.33 3146.59 451.33C3197.54 451.33 3227.09 485.159 3227.09 543.395V632.892C3227.09 644.882 3227.09 660.725 3256.63 665.436V669.718H3154.72V665.436C3183.41 660.725 3184.27 644.882 3184.27 633.748V545.965C3184.27 495.864 3166.29 466.317 3135.03 466.317C3100.77 466.317 3078.51 502.715 3078.51 560.524V632.892C3078.51 644.882 3078.51 660.725 3108.05 665.436V669.718H3006.15V665.436C3034.83 660.725 3035.69 644.453 3035.69 632.892Z" fill="black" fill-opacity="0.1"/>
<path d="M3316.58 614.05C3316.58 641.456 3331.13 657.3 3355.54 657.3C3382.94 657.3 3400.07 636.317 3403.07 599.919V582.791C3403.07 566.947 3403.07 552.388 3403.5 539.97C3377.81 562.237 3316.58 558.383 3316.58 614.05ZM3445.89 510.423V663.295C3455.73 663.295 3463.87 657.728 3475.43 644.025L3478 647.451C3466.87 665.008 3451.88 674 3432.61 674C3413.34 674 3405.21 665.864 3403.5 643.597C3392.79 663.295 3372.67 673.144 3343.55 673.144C3299.02 673.144 3271.62 650.877 3271.62 614.907C3271.62 538.685 3396.22 563.093 3403.07 518.559C3402.64 479.164 3398.36 462.035 3377.38 462.035C3333.28 462.035 3334.99 510.423 3313.15 510.423C3304.16 510.423 3297.31 502.715 3297.31 492.01C3297.31 469.315 3332.42 451.33 3376.95 451.33C3419.34 451.33 3445.89 468.03 3445.89 510.423Z" fill="black" fill-opacity="0.1"/>
<path d="M1404.88 674C1331.24 674 1276 636.746 1276 597.35C1276 585.788 1280.71 579.793 1290.56 579.793C1316.68 579.793 1325.24 663.295 1407.88 663.295C1448.98 663.295 1475.1 638.03 1475.1 604.201C1475.1 521.985 1293.56 529.693 1293.56 435.914C1293.56 393.093 1331.24 365.688 1389.47 365.688C1448.98 365.688 1500.79 395.662 1500.79 429.919C1500.79 441.481 1496.08 447.048 1486.24 447.048C1455.84 447.048 1463.97 376.393 1391.61 376.393C1357.35 376.393 1335.52 391.809 1335.52 417.073C1335.52 489.013 1522.2 491.154 1522.2 589.642C1522.2 639.315 1476.39 674 1404.88 674Z" stroke="black" stroke-width="2" mask="url(#path-1-outside-1_41_68)"/>
<path d="M1588.99 614.05C1588.99 641.456 1603.55 657.3 1627.95 657.3C1655.36 657.3 1672.48 636.317 1675.48 599.919V582.791C1675.48 566.947 1675.48 552.388 1675.91 539.97C1650.22 562.237 1588.99 558.383 1588.99 614.05ZM1718.3 510.423V663.295C1728.15 663.295 1736.28 657.728 1747.84 644.025L1750.41 647.451C1739.28 665.008 1724.29 674 1705.03 674C1685.76 674 1677.62 665.864 1675.91 643.597C1665.21 663.295 1645.08 673.144 1615.96 673.144C1571.43 673.144 1544.03 650.877 1544.03 614.907C1544.03 538.685 1668.63 563.093 1675.48 518.559C1675.05 479.164 1670.77 462.035 1649.79 462.035C1605.69 462.035 1607.4 510.423 1585.56 510.423C1576.57 510.423 1569.72 502.715 1569.72 492.01C1569.72 469.315 1604.83 451.33 1649.36 451.33C1691.75 451.33 1718.3 468.03 1718.3 510.423Z" stroke="black" stroke-width="2" mask="url(#path-1-outside-1_41_68)"/>
<path d="M1745.71 632.892V485.587C1745.71 474.882 1744.86 477.451 1716.17 472.741V468.458L1788.53 451.33V495.008C1800.52 465.889 1822.36 451.33 1854.47 451.33C1892.58 451.33 1918.7 471.884 1928.55 507.854C1938.82 470.171 1962.37 451.33 1998.77 451.33C2048.44 451.33 2077.12 485.159 2077.12 543.395V632.892C2077.12 644.882 2077.12 660.725 2106.67 665.436V669.718H2004.76V665.436C2033.45 660.725 2034.31 644.882 2034.31 633.748V545.965C2034.31 495.864 2017.61 466.317 1986.78 466.317C1954.24 466.317 1932.83 502.715 1932.83 560.524V632.892C1932.83 644.882 1932.83 660.725 1962.37 665.436V669.718H1860.46V665.436C1889.15 660.725 1890.01 644.882 1890.01 633.748V545.965C1890.01 495.864 1873.31 466.317 1842.48 466.317C1809.94 466.317 1788.53 502.715 1788.53 560.524V632.892C1788.53 644.882 1788.53 660.725 1818.08 665.436V669.718H1716.17V665.436C1744.86 660.725 1745.71 644.453 1745.71 632.892Z" stroke="black" stroke-width="2" mask="url(#path-1-outside-1_41_68)"/>
<path d="M2212 462.035C2177.75 462.035 2152.91 498.005 2151.63 549.819H2274.09C2270.66 497.577 2246.68 462.035 2212 462.035ZM2311.77 611.909H2316.05C2301.92 649.592 2269.38 669.718 2221.42 669.718C2151.2 669.718 2106.67 626.897 2106.67 560.096C2106.67 495.008 2149.49 451.33 2213.28 451.33C2276.66 451.33 2319.47 495.436 2319.47 560.524H2151.63C2153.77 618.761 2186.31 654.73 2239.4 654.73C2273.66 654.73 2298.49 639.743 2311.77 611.909Z" stroke="black" stroke-width="2" mask="url(#path-1-outside-1_41_68)"/>
<path d="M2446.16 462.035C2411.91 462.035 2387.07 498.005 2385.79 549.819H2508.25C2504.82 497.577 2480.84 462.035 2446.16 462.035ZM2545.93 611.909H2550.21C2536.08 649.592 2503.54 669.718 2455.58 669.718C2385.36 669.718 2340.83 626.897 2340.83 560.096C2340.83 495.008 2383.65 451.33 2447.45 451.33C2510.82 451.33 2553.63 495.436 2553.63 560.524H2385.79C2387.93 618.761 2420.47 654.73 2473.56 654.73C2507.82 654.73 2532.65 639.743 2545.93 611.909Z" stroke="black" stroke-width="2" mask="url(#path-1-outside-1_41_68)"/>
<path d="M2643.93 334V629.894C2643.93 641.884 2646.07 650.02 2650.35 654.302C2654.63 658.584 2661.91 660.725 2672.19 660.725V669.718C2667.62 669.432 2660.77 669.147 2651.63 668.861C2642.78 668.29 2633.79 668.005 2624.66 668.005C2614.95 668.005 2605.1 668.29 2595.11 668.861C2585.12 669.147 2577.7 669.432 2572.85 669.718V660.725C2584.55 660.725 2592.83 658.584 2597.68 654.302C2602.82 650.02 2605.39 641.884 2605.39 629.894V385.385C2605.39 372.539 2603.11 363.118 2598.54 357.123C2593.97 350.843 2585.41 347.703 2572.85 347.703V338.71C2581.98 339.567 2590.83 339.995 2599.4 339.995C2607.67 339.995 2615.52 339.567 2622.95 338.71C2630.65 337.568 2637.65 335.998 2643.93 334ZM2780.09 449.189V457.753C2772.95 458.324 2766.24 460.322 2759.96 463.748C2753.68 466.888 2747.55 471.599 2741.55 477.879L2681.18 541.254L2687.17 529.264L2766.81 638.458C2771.67 645.024 2776.23 650.163 2780.52 653.874C2785.08 657.585 2790.51 659.869 2796.79 660.725V669.718C2793.65 669.432 2788.65 669.147 2781.8 668.861C2775.23 668.29 2768.67 668.005 2762.1 668.005C2753.25 668.005 2744.26 668.29 2735.13 668.861C2725.99 669.147 2719.14 669.432 2714.58 669.718V660.725C2720.29 660.725 2724.28 659.298 2726.56 656.443C2728.85 653.589 2728.42 650.163 2725.28 646.166L2676.04 574.227C2670.62 566.519 2665.62 561.523 2661.05 559.239C2656.77 556.955 2650.49 555.671 2642.21 555.385V546.821C2651.35 545.679 2658.77 543.824 2664.48 541.254C2670.19 538.4 2675.61 534.26 2680.75 528.836L2712.44 495.864C2721.57 486.443 2726.14 479.021 2726.14 473.597C2726.14 467.887 2723.14 463.891 2717.15 461.607C2711.44 459.038 2703.87 457.753 2694.45 457.753V449.189C2701.87 449.474 2710.15 449.903 2719.29 450.474C2728.71 450.759 2736.56 450.902 2742.84 450.902C2747.69 450.902 2752.4 450.902 2756.97 450.902C2761.53 450.616 2765.81 450.331 2769.81 450.045C2773.81 449.76 2777.23 449.474 2780.09 449.189Z" stroke="black" stroke-width="2" mask="url(#path-1-outside-1_41_68)"/>
<path d="M2902.03 663.295C2929.01 663.723 2944 650.877 2944 627.325C2944 560.952 2818.54 575.94 2818.54 506.997C2818.97 473.169 2848.08 451.33 2892.19 451.33C2938.43 451.33 2980.39 475.738 2980.39 503.144C2980.39 513.421 2974.4 519.844 2964.12 519.844C2934.15 519.844 2951.7 462.463 2898.61 462.463C2875.92 462.463 2863.07 472.312 2863.5 489.441C2865.21 542.111 2988.96 535.259 2988.96 605.486C2988.96 644.025 2951.28 674 2903.75 674C2857.5 674 2810.4 647.879 2810.4 621.758C2810.4 611.909 2816.4 605.486 2825.39 605.486C2850.65 605.486 2847.23 663.295 2902.03 663.295Z" stroke="black" stroke-width="2" mask="url(#path-1-outside-1_41_68)"/>
<path d="M3035.69 632.892V369.97C3035.69 359.264 3034.83 361.834 3006.15 357.123V352.841L3078.51 335.713V495.864C3090.93 466.317 3113.62 451.33 3146.59 451.33C3197.54 451.33 3227.09 485.159 3227.09 543.395V632.892C3227.09 644.882 3227.09 660.725 3256.63 665.436V669.718H3154.72V665.436C3183.41 660.725 3184.27 644.882 3184.27 633.748V545.965C3184.27 495.864 3166.29 466.317 3135.03 466.317C3100.77 466.317 3078.51 502.715 3078.51 560.524V632.892C3078.51 644.882 3078.51 660.725 3108.05 665.436V669.718H3006.15V665.436C3034.83 660.725 3035.69 644.453 3035.69 632.892Z" stroke="black" stroke-width="2" mask="url(#path-1-outside-1_41_68)"/>
<path d="M3316.58 614.05C3316.58 641.456 3331.13 657.3 3355.54 657.3C3382.94 657.3 3400.07 636.317 3403.07 599.919V582.791C3403.07 566.947 3403.07 552.388 3403.5 539.97C3377.81 562.237 3316.58 558.383 3316.58 614.05ZM3445.89 510.423V663.295C3455.73 663.295 3463.87 657.728 3475.43 644.025L3478 647.451C3466.87 665.008 3451.88 674 3432.61 674C3413.34 674 3405.21 665.864 3403.5 643.597C3392.79 663.295 3372.67 673.144 3343.55 673.144C3299.02 673.144 3271.62 650.877 3271.62 614.907C3271.62 538.685 3396.22 563.093 3403.07 518.559C3402.64 479.164 3398.36 462.035 3377.38 462.035C3333.28 462.035 3334.99 510.423 3313.15 510.423C3304.16 510.423 3297.31 502.715 3297.31 492.01C3297.31 469.315 3332.42 451.33 3376.95 451.33C3419.34 451.33 3445.89 468.03 3445.89 510.423Z" stroke="black" stroke-width="2" mask="url(#path-1-outside-1_41_68)"/>
<g clip-path="url(#clip1_41_68)">
<rect width="826" height="550" transform="translate(96 126)" fill="white"/>
<path d="M96 400.853V676H509H922V540.826C922 408.555 922 405.652 919.879 407.104C918.763 407.996 911.284 413.689 903.471 419.94C877.686 440.032 840.516 465.816 805.355 487.918C724.206 538.705 636.695 576.21 547.175 598.311C490.694 612.264 452.185 617.399 422.382 614.72C408.094 613.492 401.62 611.706 396.039 607.799C391.686 604.674 389.23 598.981 390.681 595.186C392.579 589.94 396.485 588.6 412.336 587.596C420.372 587.038 430.976 586.033 435.888 585.252C444.259 584.024 443.143 583.912 418.028 583.801C372.487 583.689 351.614 578.331 351.614 566.611C351.614 559.802 357.529 556.9 373.38 555.672L383.426 554.891L376.17 554.221C372.152 553.774 364.896 553.439 359.985 553.328C349.046 553.216 341.456 550.649 335.763 545.291C332.303 542.054 331.522 540.491 331.522 537.143C331.522 531.338 333.196 528.771 338.554 526.315C342.684 524.529 346.144 524.195 368.915 524.195C385.881 524.195 394.03 523.748 392.914 523.078C392.021 522.52 389.788 521.962 388.114 521.962C381.975 521.962 362.329 517.386 356.525 514.595C348.711 510.912 342.684 504.214 342.684 499.191C342.684 494.392 346.925 489.145 351.948 487.471C354.404 486.69 367.464 486.243 389.118 486.466C423.609 486.69 431.423 486.02 455.31 481.555L468.035 479.099L455.868 476.086C436.892 471.286 425.061 466.598 419.256 461.575C410.661 453.985 409.657 444.72 416.912 438.469C423.275 432.888 429.079 432.776 452.073 438.134C476.072 443.604 498.173 447.734 512.572 449.296C528.869 451.082 559.453 450.859 568.159 448.738C581.108 445.725 587.916 438.804 585.014 431.772C583.005 426.861 579.88 425.744 565.481 424.74C549.965 423.624 526.413 419.828 523.734 418.042C522.171 417.149 522.283 417.038 524.627 417.484C526.19 417.819 535.008 418.601 544.161 419.382C579.433 422.061 618.724 417.038 622.854 409.113C624.64 405.987 624.193 400.853 621.961 398.955C619.171 396.388 610.799 393.821 599.079 391.811C593.386 390.918 588.363 389.914 587.693 389.691C587.135 389.467 596.176 389.356 607.785 389.467C627.989 389.579 629.216 389.467 634.351 387.012C647.857 380.314 649.197 368.259 636.807 363.348C634.686 362.566 624.082 361.897 607.562 361.674C580.103 361.339 570.95 359.888 586.912 358.548C609.013 356.539 625.198 351.293 631.672 343.814C635.579 339.461 636.025 335.777 633.235 330.978C629.216 324.28 626.872 323.834 589.926 323.722C564.922 323.722 553.314 323.164 544.161 321.825C526.748 319.146 508.665 315.239 509.781 314.346C510.228 314.011 514.135 313.006 518.376 312.114C530.766 309.769 550.188 303.519 555.769 300.17C568.941 292.022 569.164 276.06 556.104 272.153C547.509 269.586 538.468 270.59 496.164 279.185C445.822 289.454 423.051 288.673 383.426 275.502C354.069 265.791 320.359 247.373 267.339 212.212C223.807 183.302 196.459 162.541 169.894 138.319L156.052 125.705H126.026H96V400.853Z" fill="black" fill-opacity="0.1"/>
<circle opacity="0.5" cx="357" cy="-212" r="834" stroke="black" stroke-width="2"/>
<circle opacity="0.5" cx="718" cy="-489" r="834" stroke="black" stroke-width="2"/>
<circle opacity="0.5" cx="441.687" cy="494.687" r="121.687" stroke="black" stroke-width="2"/>
<circle opacity="0.5" cx="399.687" cy="400.687" r="121.687" stroke="black" stroke-width="2"/>
<circle opacity="0.5" cx="478.687" cy="356.687" r="121.687" stroke="black" stroke-width="2"/>
<circle opacity="0.5" cx="567.5" cy="305.5" r="119.5" stroke="black" stroke-width="2"/>
<circle opacity="0.5" cx="566.5" cy="302.5" r="119.5" stroke="black" stroke-width="2"/>
<circle opacity="0.5" cx="608.5" cy="271.5" r="119.5" stroke="black" stroke-width="2"/>
<circle opacity="0.5" cx="538.687" cy="393.687" r="121.687" stroke="black" stroke-width="2"/>
<circle opacity="0.5" cx="370.687" cy="433.687" r="121.687" stroke="black" stroke-width="2"/>
<circle opacity="0.5" cx="577.687" cy="237.687" r="121.687" stroke="black" stroke-width="2"/>
<circle opacity="0.5" cx="414.687" cy="465.687" r="121.687" stroke="black" stroke-width="2"/>
<circle opacity="0.5" cx="445.891" cy="88.8912" r="196.891" stroke="black" stroke-width="2"/>
<circle opacity="0.5" cx="587.572" cy="4.57233" r="318.572" stroke="black" stroke-width="2"/>
<circle opacity="0.5" cx="393.572" cy="168.572" r="318.572" stroke="black" stroke-width="2"/>
<circle opacity="0.5" cx="538.572" cy="131.572" r="318.572" stroke="black" stroke-width="2"/>
<circle opacity="0.5" cx="612.572" cy="44.5723" r="318.572" stroke="black" stroke-width="2"/>
<circle opacity="0.5" cx="374.891" cy="328.891" r="196.891" stroke="black" stroke-width="2"/>
<circle opacity="0.5" cx="429.753" cy="449.753" r="17.7534" stroke="black" stroke-width="2"/>
<circle opacity="0.5" cx="346.5" cy="538.5" r="14.5" stroke="black" stroke-width="2"/>
<circle opacity="0.5" cx="358" cy="499" r="14" stroke="black" stroke-width="2"/>
<circle opacity="0.5" cx="621" cy="336" r="13" stroke="black" stroke-width="2"/>
<circle opacity="0.5" cx="631.5" cy="374.5" r="12.5" stroke="black" stroke-width="2"/>
<circle opacity="0.5" cx="399.973" cy="597.973" r="10.9734" stroke="black" stroke-width="2"/>
<circle opacity="0.5" cx="553.5" cy="287.5" r="13.5" stroke="black" stroke-width="2"/>
<circle opacity="0.5" cx="574" cy="436" r="11" stroke="black" stroke-width="2"/>
<circle opacity="0.5" cx="612.5" cy="404.5" r="10.5" stroke="black" stroke-width="2"/>
<circle opacity="0.5" cx="363" cy="565" r="10" stroke="black" stroke-width="2"/>
<circle opacity="0.5" cx="508.687" cy="189.687" r="121.687" stroke="black" stroke-width="2"/>
</g>
<line x1="1265.5" y1="802" x2="1265.5" y2="-2.18557e-08" stroke="black"/>
<line x1="925.5" y1="802" x2="925.5" y2="-2.18557e-08" stroke="black"/>
<line x1="-80" y1="673.5" x2="3600" y2="673.5" stroke="black"/>
<line x1="-80" y1="450.5" x2="3600" y2="450.5" stroke="black"/>
<line x1="-80" y1="362.5" x2="3600" y2="362.5" stroke="black"/>
<line x1="-80" y1="333.5" x2="3600" y2="333.5" stroke="black"/>
<line x1="-80" y1="125.5" x2="3600" y2="125.5" stroke="black"/>
</g>
<defs>
<clipPath id="clip0_41_68">
<rect width="3562" height="802" fill="white"/>
</clipPath>
<clipPath id="clip1_41_68">
<rect width="826" height="550" fill="white" transform="translate(96 126)"/>
</clipPath>
</defs>
</svg>
