<svg width="3402" height="678" viewBox="0 0 3402 678" fill="none" xmlns="http://www.w3.org/2000/svg">
<path d="M1294.88 635C1221.24 635 1166 597.746 1166 558.35C1166 546.788 1170.71 540.793 1180.56 540.793C1206.68 540.793 1215.24 624.295 1297.88 624.295C1338.98 624.295 1365.1 599.03 1365.1 565.201C1365.1 482.985 1183.56 490.693 1183.56 396.914C1183.56 354.093 1221.24 326.688 1279.47 326.688C1338.98 326.688 1390.79 356.662 1390.79 390.919C1390.79 402.481 1386.08 408.048 1376.24 408.048C1345.84 408.048 1353.97 337.393 1281.61 337.393C1247.35 337.393 1225.52 352.809 1225.52 378.073C1225.52 450.013 1412.2 452.154 1412.2 550.642C1412.2 600.315 1366.39 635 1294.88 635Z" fill="black"/>
<path d="M1478.99 575.05C1478.99 602.456 1493.55 618.3 1517.95 618.3C1545.36 618.3 1562.48 597.317 1565.48 560.919V543.791C1565.48 527.947 1565.48 513.388 1565.91 500.97C1540.22 523.237 1478.99 519.383 1478.99 575.05ZM1608.3 471.423V624.295C1618.15 624.295 1626.28 618.728 1637.84 605.025L1640.41 608.451C1629.28 626.008 1614.29 635 1595.03 635C1575.76 635 1567.62 626.864 1565.91 604.597C1555.21 624.295 1535.08 634.144 1505.96 634.144C1461.43 634.144 1434.03 611.877 1434.03 575.907C1434.03 499.685 1558.63 524.093 1565.48 479.559C1565.05 440.164 1560.77 423.035 1539.79 423.035C1495.69 423.035 1497.4 471.423 1475.56 471.423C1466.57 471.423 1459.72 463.715 1459.72 453.01C1459.72 430.315 1494.83 412.33 1539.36 412.33C1581.75 412.33 1608.3 429.03 1608.3 471.423Z" fill="black"/>
<path d="M1635.71 593.892V446.587C1635.71 435.882 1634.86 438.451 1606.17 433.741V429.458L1678.53 412.33V456.008C1690.52 426.889 1712.36 412.33 1744.47 412.33C1782.58 412.33 1808.7 432.884 1818.55 468.854C1828.82 431.171 1852.37 412.33 1888.77 412.33C1938.44 412.33 1967.12 446.159 1967.12 504.395V593.892C1967.12 605.882 1967.12 621.725 1996.67 626.436V630.718H1894.76V626.436C1923.45 621.725 1924.31 605.882 1924.31 594.748V506.965C1924.31 456.864 1907.61 427.317 1876.78 427.317C1844.24 427.317 1822.83 463.715 1822.83 521.524V593.892C1822.83 605.882 1822.83 621.725 1852.37 626.436V630.718H1750.46V626.436C1779.15 621.725 1780.01 605.882 1780.01 594.748V506.965C1780.01 456.864 1763.31 427.317 1732.48 427.317C1699.94 427.317 1678.53 463.715 1678.53 521.524V593.892C1678.53 605.882 1678.53 621.725 1708.08 626.436V630.718H1606.17V626.436C1634.86 621.725 1635.71 605.453 1635.71 593.892Z" fill="black"/>
<path d="M2102 423.035C2067.75 423.035 2042.91 459.005 2041.63 510.819H2164.09C2160.66 458.577 2136.68 423.035 2102 423.035ZM2201.77 572.909H2206.05C2191.92 610.592 2159.38 630.718 2111.42 630.718C2041.2 630.718 1996.67 587.897 1996.67 521.096C1996.67 456.008 2039.49 412.33 2103.28 412.33C2166.66 412.33 2209.47 456.436 2209.47 521.524H2041.63C2043.77 579.761 2076.31 615.73 2129.4 615.73C2163.66 615.73 2188.49 600.743 2201.77 572.909Z" fill="black"/>
<path d="M2336.16 423.035C2301.91 423.035 2277.07 459.005 2275.79 510.819H2398.25C2394.82 458.577 2370.84 423.035 2336.16 423.035ZM2435.93 572.909H2440.21C2426.08 610.592 2393.54 630.718 2345.58 630.718C2275.36 630.718 2230.83 587.897 2230.83 521.096C2230.83 456.008 2273.65 412.33 2337.45 412.33C2400.82 412.33 2443.63 456.436 2443.63 521.524H2275.79C2277.93 579.761 2310.47 615.73 2363.56 615.73C2397.82 615.73 2422.65 600.743 2435.93 572.909Z" fill="black"/>
<path d="M2533.93 295V590.894C2533.93 602.884 2536.07 611.02 2540.35 615.302C2544.63 619.584 2551.91 621.725 2562.19 621.725V630.718C2557.62 630.432 2550.77 630.147 2541.63 629.861C2532.78 629.29 2523.79 629.005 2514.66 629.005C2504.95 629.005 2495.1 629.29 2485.11 629.861C2475.12 630.147 2467.7 630.432 2462.85 630.718V621.725C2474.55 621.725 2482.83 619.584 2487.68 615.302C2492.82 611.02 2495.39 602.884 2495.39 590.894V346.385C2495.39 333.539 2493.11 324.118 2488.54 318.123C2483.97 311.843 2475.41 308.703 2462.85 308.703V299.71C2471.98 300.567 2480.83 300.995 2489.4 300.995C2497.67 300.995 2505.52 300.567 2512.95 299.71C2520.65 298.568 2527.65 296.998 2533.93 295ZM2670.09 410.189V418.753C2662.95 419.324 2656.24 421.322 2649.96 424.748C2643.68 427.888 2637.55 432.599 2631.55 438.879L2571.18 502.254L2577.17 490.264L2656.81 599.458C2661.67 606.024 2666.23 611.163 2670.52 614.874C2675.08 618.585 2680.51 620.869 2686.79 621.725V630.718C2683.65 630.432 2678.65 630.147 2671.8 629.861C2665.23 629.29 2658.67 629.005 2652.1 629.005C2643.25 629.005 2634.26 629.29 2625.13 629.861C2615.99 630.147 2609.14 630.432 2604.58 630.718V621.725C2610.29 621.725 2614.28 620.298 2616.56 617.443C2618.85 614.589 2618.42 611.163 2615.28 607.166L2566.04 535.227C2560.62 527.519 2555.62 522.523 2551.05 520.239C2546.77 517.955 2540.49 516.671 2532.21 516.385V507.821C2541.35 506.679 2548.77 504.824 2554.48 502.254C2560.19 499.4 2565.61 495.26 2570.75 489.836L2602.44 456.864C2611.57 447.443 2616.14 440.021 2616.14 434.597C2616.14 428.887 2613.14 424.891 2607.15 422.607C2601.44 420.038 2593.87 418.753 2584.45 418.753V410.189C2591.87 410.474 2600.15 410.903 2609.29 411.474C2618.71 411.759 2626.56 411.902 2632.84 411.902C2637.69 411.902 2642.4 411.902 2646.97 411.902C2651.53 411.616 2655.81 411.331 2659.81 411.045C2663.81 410.76 2667.23 410.474 2670.09 410.189Z" fill="black"/>
<path d="M2792.03 624.295C2819.01 624.723 2834 611.877 2834 588.325C2834 521.952 2708.54 536.94 2708.54 467.997C2708.97 434.169 2738.08 412.33 2782.19 412.33C2828.43 412.33 2870.39 436.738 2870.39 464.144C2870.39 474.421 2864.4 480.844 2854.12 480.844C2824.15 480.844 2841.7 423.463 2788.61 423.463C2765.92 423.463 2753.07 433.312 2753.5 450.441C2755.21 503.111 2878.96 496.259 2878.96 566.486C2878.96 605.025 2841.28 635 2793.75 635C2747.5 635 2700.4 608.879 2700.4 582.758C2700.4 572.909 2706.4 566.486 2715.39 566.486C2740.65 566.486 2737.23 624.295 2792.03 624.295Z" fill="black"/>
<path d="M2925.69 593.892V330.97C2925.69 320.264 2924.83 322.834 2896.15 318.123V313.841L2968.51 296.713V456.864C2980.93 427.317 3003.62 412.33 3036.59 412.33C3087.54 412.33 3117.09 446.159 3117.09 504.395V593.892C3117.09 605.882 3117.09 621.725 3146.63 626.436V630.718H3044.72V626.436C3073.41 621.725 3074.27 605.882 3074.27 594.748V506.965C3074.27 456.864 3056.29 427.317 3025.03 427.317C2990.77 427.317 2968.51 463.715 2968.51 521.524V593.892C2968.51 605.882 2968.51 621.725 2998.05 626.436V630.718H2896.15V626.436C2924.83 621.725 2925.69 605.453 2925.69 593.892Z" fill="black"/>
<path d="M3206.58 575.05C3206.58 602.456 3221.13 618.3 3245.54 618.3C3272.94 618.3 3290.07 597.317 3293.07 560.919V543.791C3293.07 527.947 3293.07 513.388 3293.5 500.97C3267.81 523.237 3206.58 519.383 3206.58 575.05ZM3335.89 471.423V624.295C3345.73 624.295 3353.87 618.728 3365.43 605.025L3368 608.451C3356.87 626.008 3341.88 635 3322.61 635C3303.34 635 3295.21 626.864 3293.5 604.597C3282.79 624.295 3262.67 634.144 3233.55 634.144C3189.02 634.144 3161.62 611.877 3161.62 575.907C3161.62 499.685 3286.22 524.093 3293.07 479.559C3292.64 440.164 3288.36 423.035 3267.38 423.035C3223.28 423.035 3224.99 471.423 3203.15 471.423C3194.16 471.423 3187.31 463.715 3187.31 453.01C3187.31 430.315 3222.42 412.33 3266.95 412.33C3309.34 412.33 3335.89 429.03 3335.89 471.423Z" fill="black"/>
<g clip-path="url(#clip0_41_84)">
<rect width="826" height="550" transform="translate(0 85)" fill="white"/>
<g clip-path="url(#clip1_41_84)">
<path d="M0 360V635H413H826V499.899C826 367.698 826 364.797 823.879 366.247C822.763 367.14 815.284 372.83 807.471 379.077C781.686 399.158 744.516 424.929 709.355 447.018C628.206 497.779 540.695 535.264 451.175 557.353C394.694 571.298 356.185 576.43 326.382 573.753C312.094 572.525 305.62 570.74 300.039 566.836C295.686 563.712 293.23 558.022 294.681 554.229C296.579 548.986 300.485 547.647 316.336 546.643C324.372 546.085 334.976 545.081 339.888 544.3C348.259 543.073 347.143 542.961 322.028 542.85C276.487 542.738 255.614 537.383 255.614 525.669C255.614 518.864 261.529 515.963 277.38 514.736L287.426 513.955L280.17 513.286C276.152 512.84 268.896 512.505 263.985 512.393C253.046 512.282 245.456 509.716 239.763 504.361C236.303 501.126 235.522 499.564 235.522 496.217C235.522 490.416 237.196 487.85 242.554 485.396C246.684 483.611 250.144 483.276 272.915 483.276C289.881 483.276 298.03 482.83 296.914 482.16C296.021 481.602 293.788 481.045 292.114 481.045C285.975 481.045 266.329 476.471 260.525 473.682C252.711 470 246.684 463.306 246.684 458.286C246.684 453.489 250.925 448.245 255.948 446.572C258.404 445.791 271.464 445.345 293.118 445.568C327.609 445.791 335.423 445.122 359.31 440.659L372.035 438.205L359.868 435.193C340.892 430.396 329.061 425.71 323.256 420.69C314.661 413.103 313.657 403.844 320.912 397.596C327.275 392.018 333.079 391.907 356.073 397.262C380.072 402.728 402.173 406.856 416.572 408.418C432.869 410.203 463.453 409.98 472.159 407.86C485.108 404.848 491.916 397.931 489.014 390.903C487.005 385.994 483.88 384.878 469.481 383.874C453.965 382.759 430.413 378.965 427.734 377.18C426.171 376.288 426.283 376.176 428.627 376.623C430.19 376.957 439.008 377.738 448.161 378.519C483.433 381.197 522.724 376.176 526.854 368.256C528.64 365.132 528.193 360 525.961 358.103C523.171 355.537 514.799 352.972 503.079 350.963C497.386 350.071 492.363 349.067 491.693 348.844C491.135 348.621 500.176 348.509 511.785 348.621C531.989 348.732 533.216 348.621 538.351 346.166C551.857 339.473 553.197 327.424 540.807 322.515C538.686 321.734 528.082 321.065 511.562 320.842C484.103 320.507 474.95 319.057 490.912 317.718C513.013 315.71 529.198 310.466 535.672 302.992C539.579 298.641 540.025 294.959 537.235 290.162C533.216 283.469 530.872 283.022 493.926 282.911C468.922 282.911 457.314 282.353 448.161 281.014C430.748 278.337 412.665 274.432 413.781 273.54C414.228 273.205 418.135 272.201 422.376 271.308C434.766 268.965 454.188 262.718 459.769 259.371C472.941 251.227 473.164 235.274 460.104 231.369C451.509 228.803 442.468 229.807 400.164 238.398C349.822 248.661 327.051 247.88 287.426 234.716C258.069 225.01 224.359 206.602 171.339 171.46C127.807 142.566 100.459 121.815 73.8935 97.6064L60.0524 84.9999H30.0262H0V360Z" fill="black"/>
</g>
</g>
<defs>
<clipPath id="clip0_41_84">
<rect width="826" height="550" fill="white" transform="translate(0 85)"/>
</clipPath>
<clipPath id="clip1_41_84">
<rect width="826" height="550" fill="white" transform="translate(0 85)"/>
</clipPath>
</defs>
</svg>
