<svg width="1543" height="239" viewBox="0 0 1543 239" fill="none" xmlns="http://www.w3.org/2000/svg">
<path d="M90.3 238.2C38.7 238.2 0 212.1 0 184.5C0 176.4 3.3 172.2 10.2 172.2C28.5 172.2 34.5 230.7 92.4 230.7C121.2 230.7 139.5 213 139.5 189.3C139.5 131.7 12.3 137.1 12.3 71.4C12.3 41.4 38.7 22.2 79.5 22.2C121.2 22.2 157.5 43.2 157.5 67.2C157.5 75.3 154.2 79.2 147.3 79.2C126 79.2 131.7 29.7 81 29.7C57 29.7 41.7 40.5 41.7 58.2C41.7 108.6 172.5 110.1 172.5 179.1C172.5 213.9 140.4 238.2 90.3 238.2Z" fill="#8DC9F4"/>
<path d="M219.293 196.2C219.293 215.4 229.493 226.5 246.593 226.5C265.793 226.5 277.793 211.8 279.893 186.3V174.3C279.893 163.2 279.893 153 280.193 144.3C262.193 159.9 219.293 157.2 219.293 196.2ZM309.893 123.6V230.7C316.793 230.7 322.493 226.8 330.593 217.2L332.393 219.6C324.593 231.9 314.093 238.2 300.593 238.2C287.093 238.2 281.393 232.5 280.193 216.9C272.693 230.7 258.593 237.6 238.193 237.6C206.993 237.6 187.793 222 187.793 196.8C187.793 143.4 275.093 160.5 279.893 129.3C279.593 101.7 276.593 89.7 261.893 89.7C230.993 89.7 232.193 123.6 216.893 123.6C210.593 123.6 205.793 118.2 205.793 110.7C205.793 94.8 230.393 82.2 261.593 82.2C291.293 82.2 309.893 93.9 309.893 123.6Z" fill="#8DC9F4"/>
<path d="M329.1 209.4V106.2C329.1 98.7 328.5 100.5 308.4 97.2V94.2L359.1 82.2V112.8C367.5 92.4 382.8 82.2 405.3 82.2C432 82.2 450.3 96.6 457.2 121.8C464.4 95.4 480.9 82.2 506.4 82.2C541.2 82.2 561.3 105.9 561.3 146.7V209.4C561.3 217.8 561.3 228.9 582 232.2V235.2H510.6V232.2C530.7 228.9 531.3 217.8 531.3 210V148.5C531.3 113.4 519.6 92.7 498 92.7C475.2 92.7 460.2 118.2 460.2 158.7V209.4C460.2 217.8 460.2 228.9 480.9 232.2V235.2H409.5V232.2C429.6 228.9 430.2 217.8 430.2 210V148.5C430.2 113.4 418.5 92.7 396.9 92.7C374.1 92.7 359.1 118.2 359.1 158.7V209.4C359.1 217.8 359.1 228.9 379.8 232.2V235.2H308.4V232.2C328.5 228.9 329.1 217.5 329.1 209.4Z" fill="#8DC9F4"/>
<path d="M655.8 89.7C631.8 89.7 614.4 114.9 613.5 151.2H699.3C696.9 114.6 680.1 89.7 655.8 89.7ZM725.7 194.7H728.7C718.8 221.1 696 235.2 662.4 235.2C613.2 235.2 582 205.2 582 158.4C582 112.8 612 82.2 656.7 82.2C701.1 82.2 731.1 113.1 731.1 158.7H613.5C615 199.5 637.8 224.7 675 224.7C699 224.7 716.4 214.2 725.7 194.7Z" fill="#8DC9F4"/>
<path d="M819.862 89.7C795.862 89.7 778.462 114.9 777.562 151.2H863.362C860.962 114.6 844.162 89.7 819.862 89.7ZM889.763 194.7H892.763C882.863 221.1 860.063 235.2 826.463 235.2C777.263 235.2 746.062 205.2 746.062 158.4C746.062 112.8 776.063 82.2 820.763 82.2C865.163 82.2 895.162 113.1 895.162 158.7H777.562C779.062 199.5 801.862 224.7 839.062 224.7C863.063 224.7 880.463 214.2 889.763 194.7Z" fill="#8DC9F4"/>
<path d="M958.425 0V207.3C958.425 215.7 959.925 221.4 962.925 224.4C965.925 227.4 971.025 228.9 978.225 228.9V235.2C975.025 235 970.225 234.8 963.825 234.6C957.625 234.2 951.325 234 944.925 234C938.125 234 931.225 234.2 924.225 234.6C917.225 234.8 912.025 235 908.625 235.2V228.9C916.825 228.9 922.625 227.4 926.025 224.4C929.625 221.4 931.425 215.7 931.425 207.3V36C931.425 27 929.825 20.4 926.625 16.2C923.425 11.8 917.425 9.6 908.625 9.6V3.29999C915.025 3.9 921.225 4.2 927.225 4.2C933.025 4.2 938.525 3.9 943.725 3.29999C949.125 2.5 954.025 1.40001 958.425 0ZM1053.82 80.7V86.7C1048.82 87.1 1044.12 88.5 1039.72 90.9C1035.32 93.1 1031.02 96.4 1026.82 100.8L984.525 145.2L988.725 136.8L1044.53 213.3C1047.93 217.9 1051.13 221.5 1054.12 224.1C1057.33 226.7 1061.13 228.3 1065.53 228.9V235.2C1063.33 235 1059.83 234.8 1055.03 234.6C1050.43 234.2 1045.82 234 1041.22 234C1035.02 234 1028.72 234.2 1022.32 234.6C1015.92 234.8 1011.13 235 1007.93 235.2V228.9C1011.93 228.9 1014.72 227.9 1016.32 225.9C1017.92 223.9 1017.63 221.5 1015.43 218.7L980.925 168.3C977.125 162.9 973.625 159.4 970.425 157.8C967.425 156.2 963.025 155.3 957.225 155.1V149.1C963.625 148.3 968.825 147 972.825 145.2C976.825 143.2 980.625 140.3 984.225 136.5L1006.43 113.4C1012.83 106.8 1016.03 101.6 1016.03 97.8C1016.03 93.8 1013.92 91 1009.72 89.4C1005.72 87.6 1000.42 86.7 993.825 86.7V80.7C999.025 80.9 1004.82 81.2 1011.22 81.6C1017.82 81.8 1023.32 81.9 1027.72 81.9C1031.12 81.9 1034.42 81.9 1037.62 81.9C1040.83 81.7 1043.83 81.5 1046.62 81.3C1049.42 81.1 1051.82 80.9 1053.82 80.7Z" fill="#8DC9F4"/>
<path d="M1139.27 230.7C1158.17 231 1168.67 222 1168.67 205.5C1168.67 159 1080.77 169.5 1080.77 121.2C1081.07 97.5 1101.47 82.2 1132.37 82.2C1164.77 82.2 1194.17 99.3 1194.17 118.5C1194.17 125.7 1189.97 130.2 1182.77 130.2C1161.77 130.2 1174.07 90 1136.87 90C1120.97 90 1111.97 96.9 1112.27 108.9C1113.47 145.8 1200.17 141 1200.17 190.2C1200.17 217.2 1173.77 238.2 1140.47 238.2C1108.07 238.2 1075.07 219.9 1075.07 201.6C1075.07 194.7 1079.27 190.2 1085.57 190.2C1103.27 190.2 1100.87 230.7 1139.27 230.7Z" fill="#8DC9F4"/>
<path d="M1232.91 209.4V25.2C1232.91 17.7 1232.31 19.5 1212.21 16.2V13.2L1262.91 1.2V113.4C1271.61 92.7 1287.51 82.2 1310.61 82.2C1346.31 82.2 1367.01 105.9 1367.01 146.7V209.4C1367.01 217.8 1367.01 228.9 1387.71 232.2V235.2H1316.31V232.2C1336.41 228.9 1337.01 217.8 1337.01 210V148.5C1337.01 113.4 1324.41 92.7 1302.51 92.7C1278.51 92.7 1262.91 118.2 1262.91 158.7V209.4C1262.91 217.8 1262.91 228.9 1283.61 232.2V235.2H1212.21V232.2C1232.31 228.9 1232.91 217.5 1232.91 209.4Z" fill="#8DC9F4"/>
<path d="M1429.71 196.2C1429.71 215.4 1439.91 226.5 1457.01 226.5C1476.21 226.5 1488.21 211.8 1490.31 186.3V174.3C1490.31 163.2 1490.31 153 1490.61 144.3C1472.61 159.9 1429.71 157.2 1429.71 196.2ZM1520.31 123.6V230.7C1527.21 230.7 1532.91 226.8 1541.01 217.2L1542.81 219.6C1535.01 231.9 1524.51 238.2 1511.01 238.2C1497.51 238.2 1491.81 232.5 1490.61 216.9C1483.11 230.7 1469.01 237.6 1448.61 237.6C1417.41 237.6 1398.21 222 1398.21 196.8C1398.21 143.4 1485.51 160.5 1490.31 129.3C1490.01 101.7 1487.01 89.7 1472.31 89.7C1441.41 89.7 1442.61 123.6 1427.31 123.6C1421.01 123.6 1416.21 118.2 1416.21 110.7C1416.21 94.8 1440.81 82.2 1472.01 82.2C1501.71 82.2 1520.31 93.9 1520.31 123.6Z" fill="#8DC9F4"/>
</svg>
